<svg width="22" height="38" viewBox="0 0 22 38" fill="none" xmlns="http://www.w3.org/2000/svg">
<path d="M20.7576 36.1868C21.0589 35.8862 21.2979 35.529 21.461 35.1359C21.6241 34.7427 21.708 34.3212 21.708 33.8956C21.708 33.4699 21.6241 33.0485 21.461 32.6553C21.2979 32.2622 21.0589 31.905 20.7576 31.6043L8.14757 18.9943L20.7576 6.38434C21.3652 5.77667 21.7066 4.95248 21.7066 4.0931C21.7066 3.23371 21.3652 2.40952 20.7576 1.80184C20.1499 1.19416 19.3257 0.852779 18.4663 0.852779C17.6069 0.852779 16.7827 1.19416 16.1751 1.80184L1.25757 16.7193C0.956279 17.02 0.71725 17.3772 0.55416 17.7703C0.39107 18.1635 0.307125 18.5849 0.307125 19.0106C0.307125 19.4362 0.39107 19.8577 0.55416 20.2509C0.717249 20.644 0.956279 21.0012 1.25757 21.3018L16.1751 36.2193C17.4101 37.4543 19.4901 37.4543 20.7576 36.1868Z" fill="white"/>
</svg>
